<svg xmlns="http://www.w3.org/2000/svg" width="256" height="256" fill="none"><rect width="256" height="256" fill="#18181b" rx="60"/><path fill="#F4F2ED" d="M212.572 188.269H45.012c-7.59 0-14.012-6.421-14.012-14.012V82.012C31 74.422 37.422 68 45.012 68h166.976C219.578 68 226 74.422 226 82.012v92.245c0 7.59-5.839 14.012-13.428 14.012ZM45.012 77.341c-2.336 0-4.671 2.335-4.671 4.67v92.246c0 2.919 2.335 4.671 4.67 4.671h166.977c2.919 0 4.671-2.335 4.671-4.671V82.012c0-2.92-2.335-4.671-4.671-4.671H45.012Zm14.012 82.905V96.024h18.682l18.683 23.354 18.683-23.354h18.682v64.222h-18.682v-36.782l-18.683 23.354-18.683-23.354v36.782H59.024Zm117.35 0-28.024-30.944h18.683V96.024h18.683v32.695h18.682l-28.024 31.527Z"/></svg>