<svg width="256" height="256" fill="none" xmlns="http://www.w3.org/2000/svg"><path d="M196 0H60C26.863 0 0 26.863 0 60v136c0 33.137 26.863 60 60 60h136c33.137 0 60-26.863 60-60V60c0-33.137-26.863-60-60-60Z" fill="#18181b"/><path d="m225.613 125.628-8.307-5.149c-.07-.81-.149-1.618-.237-2.423l7.153-6.663a2.851 2.851 0 0 0 .856-2.651 2.842 2.842 0 0 0-1.803-2.119l-9.141-3.408c-.229-.791-.47-1.577-.715-2.366l5.696-7.913c.581-.805.7-1.851.322-2.764a2.87 2.87 0 0 0-2.176-1.73l-9.633-1.567a72.416 72.416 0 0 0-1.159-2.158l4.051-8.897a2.864 2.864 0 0 0-.224-2.783 2.845 2.845 0 0 0-2.479-1.27l-9.784.34a77.346 77.346 0 0 0-1.544-1.874l2.252-9.522a2.868 2.868 0 0 0-3.45-3.45l-9.518 2.252a82.106 82.106 0 0 0-1.878-1.544l.343-9.787a2.856 2.856 0 0 0-1.27-2.48 2.868 2.868 0 0 0-2.783-.225l-8.875 4.05c-.717-.393-1.436-.783-2.157-1.16l-1.571-9.635a2.838 2.838 0 0 0-1.73-2.177 2.847 2.847 0 0 0-2.762.322l-7.91 5.698a97.94 97.94 0 0 0-2.347-.714l-3.407-9.143a2.858 2.858 0 0 0-2.119-1.808 2.871 2.871 0 0 0-2.649.856l-6.662 7.155a86.275 86.275 0 0 0-2.422-.236l-5.148-8.33A2.863 2.863 0 0 0 127.985 29a2.82 2.82 0 0 0-2.422 1.355l-5.148 8.33c-.81.066-1.62.147-2.422.236l-6.661-7.155a2.87 2.87 0 0 0-2.65-.856 2.85 2.85 0 0 0-2.12 1.808l-3.406 9.143a84.55 84.55 0 0 0-2.346.714l-7.91-5.698a2.842 2.842 0 0 0-2.763-.322 2.868 2.868 0 0 0-1.73 2.177l-1.57 9.635c-.727.377-1.447.765-2.158 1.16l-8.876-4.05a2.864 2.864 0 0 0-4.051 2.705l.34 9.787a91.244 91.244 0 0 0-1.877 1.544l-9.519-2.252a2.866 2.866 0 0 0-3.45 3.451l2.233 9.521a92.635 92.635 0 0 0-1.54 1.874l-9.784-.34a2.876 2.876 0 0 0-2.479 1.27 2.868 2.868 0 0 0-.225 2.783l4.05 8.897a97.81 97.81 0 0 0-1.16 2.158l-9.633 1.567a2.84 2.84 0 0 0-2.176 1.73 2.859 2.859 0 0 0 .322 2.764l5.696 7.913a80.772 80.772 0 0 0-.716 2.366l-9.14 3.408a2.859 2.859 0 0 0-.948 4.77l7.153 6.663a94.561 94.561 0 0 0-.236 2.423l-8.308 5.149A2.863 2.863 0 0 0 29 128.07c0 1.001.513 1.912 1.355 2.424l8.308 5.148c.068.811.147 1.619.236 2.423l-7.153 6.664a2.86 2.86 0 0 0 .948 4.77l9.14 3.407c.227.792.468 1.577.716 2.367l-5.696 7.912a2.857 2.857 0 0 0 1.873 4.494l9.633 1.567c.376.731.762 1.45 1.16 2.159l-4.05 8.878a2.866 2.866 0 0 0 2.704 4.052l9.765-.342a96.8 96.8 0 0 0 1.544 1.878l-2.233 9.522a2.835 2.835 0 0 0 .763 2.669 2.856 2.856 0 0 0 2.687.761l9.519-2.234a77.287 77.287 0 0 0 1.877 1.541l-.34 9.787a2.864 2.864 0 0 0 4.052 2.701l8.875-4.051a93.46 93.46 0 0 0 2.157 1.161l1.57 9.635a2.89 2.89 0 0 0 1.73 2.196c.914.38 1.969.257 2.763-.32l7.911-5.698a77.48 77.48 0 0 0 2.365.717l3.406 9.143a2.853 2.853 0 0 0 2.12 1.805 2.853 2.853 0 0 0 2.65-.856l6.661-7.156c.804.093 1.614.171 2.422.243l5.148 8.31a2.857 2.857 0 0 0 2.422 1.356 2.9 2.9 0 0 0 2.441-1.356l5.148-8.31c.81-.072 1.618-.15 2.422-.243l6.661 7.156a2.85 2.85 0 0 0 2.65.856 2.844 2.844 0 0 0 2.119-1.805l3.407-9.143c.79-.226 1.576-.469 2.365-.717l7.91 5.698a2.859 2.859 0 0 0 4.493-1.876l1.571-9.635a102.91 102.91 0 0 0 2.157-1.161l8.876 4.051a2.866 2.866 0 0 0 2.781-.222 2.858 2.858 0 0 0 1.27-2.479l-.34-9.787a78.62 78.62 0 0 0 1.875-1.541l9.518 2.234a2.863 2.863 0 0 0 3.451-3.43l-2.234-9.522a76.817 76.817 0 0 0 1.541-1.878l9.784.342a2.842 2.842 0 0 0 2.478-1.27 2.853 2.853 0 0 0 .224-2.782l-4.049-8.878c.395-.717.783-1.438 1.158-2.159l9.632-1.567a2.826 2.826 0 0 0 2.176-1.73 2.85 2.85 0 0 0-.322-2.764l-5.696-7.912c.247-.783.486-1.568.716-2.367l9.14-3.407a2.853 2.853 0 0 0 1.804-2.121 2.853 2.853 0 0 0-.855-2.649l-7.154-6.664c.087-.804.166-1.614.236-2.423l8.309-5.148a2.858 2.858 0 0 0 1.354-2.424c0-.982-.511-1.912-1.353-2.442h-.059Zm-55.637 69.095c-3.179-.685-5.185-3.824-4.504-7.004a5.88 5.88 0 0 1 6.983-4.525c3.18.68 5.204 3.824 4.523 7.004a5.88 5.88 0 0 1-6.983 4.525h-.019Zm-2.82-19.119c-2.895-.621-5.752 1.222-6.358 4.126l-2.952 13.781c-9.103 4.127-19.303 6.436-29.901 6.436-10.9 0-21.194-2.404-30.468-6.72l-2.952-13.781c-.62-2.896-3.463-4.752-6.358-4.127l-12.169 2.612a73.427 73.427 0 0 1-6.282-7.42h59.232c.671 0 1.117-.121 1.117-.731v-21.012c0-.609-.446-.73-1.117-.73h-17.315v-13.27h18.715c1.709 0 9.141.488 11.507 9.994.743 2.915 2.384 12.419 3.501 15.466 1.113 3.408 5.639 10.223 10.465 10.223h29.522c.334 0 .692-.039 1.069-.106a74.2 74.2 0 0 1-6.699 7.875l-12.453-2.67-.104.054Zm-81.942 18.835a5.874 5.874 0 0 1-6.983-4.525c-.679-3.18 1.34-6.323 4.523-7.004a5.883 5.883 0 0 1 6.983 4.525c.68 3.18-1.341 6.322-4.522 7.004Zm-22.52-91.054a5.905 5.905 0 0 1-2.99 7.78c-2.97 1.32-6.434-.022-7.758-2.99-1.325-2.969.022-6.456 2.99-7.781a5.882 5.882 0 0 1 7.759 2.991Zm-6.907 16.356 12.68-5.641c2.706-1.202 3.936-4.373 2.725-7.08l-2.612-5.906h10.257v46.189H58.21a72.623 72.623 0 0 1-2.763-19.876c0-2.632.142-5.225.414-7.781l-.074.095Zm55.638-4.487v-13.629h24.412c1.262 0 8.913 1.459 8.913 7.175 0 4.75-5.867 6.454-10.692 6.454h-22.709.076Zm88.754 12.267c0 1.81-.066 3.597-.198 5.377h-7.438c-.744 0-1.043.488-1.043 1.216v3.407c0 8.027-4.522 9.788-8.497 10.223-3.784.426-7.966-1.582-8.477-3.9-2.234-12.55-5.943-15.22-11.81-19.876 7.287-4.619 14.856-11.453 14.856-20.634 0-9.862-6.755-16.071-11.354-19.119-6.472-4.26-13.626-5.111-15.556-5.111H73.83c10.427-11.624 24.6-19.877 40.497-22.905l9.066 9.502a5.36 5.36 0 0 0 7.588.175l10.143-9.693c21.195 3.957 39.173 17.17 49.581 35.4l-6.944 15.673c-1.198 2.708.024 5.888 2.724 7.081l13.361 5.943c.231 2.366.352 4.771.352 7.193l-.019.048Zm-76.832-79.316a5.863 5.863 0 0 1 8.307.19 5.904 5.904 0 0 1-.195 8.33 5.861 5.861 0 0 1-8.307-.193 5.905 5.905 0 0 1 .195-8.33v.003Zm68.884 55.465a5.868 5.868 0 0 1 7.759-2.992 5.894 5.894 0 0 1 2.99 7.781 5.867 5.867 0 0 1-7.759 2.99 5.892 5.892 0 0 1-2.99-7.779Z" fill="#CE422B"/></svg>