<svg xmlns="http://www.w3.org/2000/svg" xmlns:xlink="http://www.w3.org/1999/xlink" width="256" height="256"><defs><linearGradient id="h"><stop offset="0" stop-color="#a2a2a2"/><stop offset="1" stop-color="#4e4e4e"/></linearGradient><linearGradient id="i"><stop offset="0" stop-color="#fff"/><stop offset="1" stop-color="#fff" stop-opacity="0"/></linearGradient><linearGradient id="g"><stop offset="0" stop-color="#ababab"/><stop offset=".194" stop-color="#f6f6f6"/><stop offset=".397" stop-color="#b0b0b0"/><stop offset="1" stop-color="#585858"/></linearGradient><linearGradient id="d"><stop offset="0" stop-color="#ababab"/><stop offset=".194" stop-color="#f6f6f6"/><stop offset=".397" stop-color="#b0b0b0"/><stop offset="1" stop-color="#585858"/></linearGradient><linearGradient id="e"><stop offset="0" stop-color="#a2a2a2"/><stop offset="1" stop-color="#4e4e4e"/></linearGradient><linearGradient id="f"><stop offset="0" stop-color="#fff"/><stop offset="1" stop-color="#fff" stop-opacity="0"/></linearGradient><linearGradient id="a"><stop offset="0" stop-color="#ababab"/><stop offset=".194" stop-color="#f6f6f6"/><stop offset=".397" stop-color="#b0b0b0"/><stop offset="1" stop-color="#585858"/></linearGradient><linearGradient id="b"><stop offset="0" stop-color="#a2a2a2"/><stop offset="1" stop-color="#4e4e4e"/></linearGradient><linearGradient id="c"><stop offset="0" stop-color="#fff"/><stop offset="1" stop-color="#fff" stop-opacity="0"/></linearGradient><linearGradient xlink:href="#a" id="j" x1="10.116" x2="38.013" y1="17.512" y2="17.512" gradientTransform="translate(73.78 127.77)" gradientUnits="userSpaceOnUse"/><linearGradient xlink:href="#b" id="k" x1="24" x2="24" y1="15.149" y2="13.285" gradientUnits="userSpaceOnUse" href="#b"/><linearGradient xlink:href="#c" id="l" x1="16.071" x2="16.19" y1="19.5" y2="24.04" gradientTransform="translate(73.636 130.414)" gradientUnits="userSpaceOnUse" href="#c"/><linearGradient xlink:href="#d" id="m" x1="10.116" x2="38.013" y1="17.512" y2="17.512" gradientTransform="translate(73.78 127.77)" gradientUnits="userSpaceOnUse" href="#d"/><linearGradient xlink:href="#e" id="n" x1="24" x2="24" y1="15.149" y2="13.285" gradientUnits="userSpaceOnUse" href="#e"/><linearGradient xlink:href="#f" id="o" x1="16.071" x2="16.19" y1="19.5" y2="24.04" gradientTransform="translate(73.636 130.414)" gradientUnits="userSpaceOnUse" href="#f"/><linearGradient xlink:href="#g" id="p" x1="10.116" x2="38.013" y1="17.512" y2="17.512" gradientTransform="translate(73.78 127.77)" gradientUnits="userSpaceOnUse" href="#g"/><linearGradient xlink:href="#h" id="q" x1="24" x2="24" y1="15.149" y2="13.285" gradientUnits="userSpaceOnUse" href="#h"/><linearGradient xlink:href="#i" id="r" x1="16.071" x2="16.19" y1="19.5" y2="24.04" gradientTransform="translate(73.636 130.414)" gradientUnits="userSpaceOnUse" href="#i"/></defs><path fill="#18181b" d="M196 0H60C26.863 0 0 26.863 0 60v136c0 33.137 26.863 60 60 60h136c33.137 0 60-26.863 60-60V60c0-33.137-26.863-60-60-60z"/><g transform="matrix(6.1932 0 0 4.64947 -477.904 -506.01)"><path fill="url(#j)" d="M97.72 137.522c-7.625 0-13.825 2.13-13.825 5.475v6.558c0 3.345 6.2 5.648 13.825 5.648 7.625 0 14.072-2.303 14.072-5.648v-6.558c0-3.345-6.447-5.475-14.072-5.475z"/><ellipse cx="95.126" cy="149.711" fill="#c3c3c3" stroke="url(#k)" stroke-miterlimit="10" stroke-width="1.005" rx="12.857" ry="5.5" transform="matrix(1.0373 0 0 .95462 -.895 -.076)"/><path fill="url(#l)" d="m87.422 147.485.256 5.876 4.672 1.084-.142-5.603s2.071-.04 5.428-.254c-5.216-.233-11.183-2.725-13.214-4.18 1.417 2.093 3 3.077 3 3.077z" opacity=".494"/></g><g transform="matrix(6.1932 0 0 4.64947 -478.027 -552.696)"><path fill="url(#m)" d="M97.72 137.52c-7.625 0-13.825 2.132-13.825 5.477v6.558c0 3.345 6.2 5.648 13.825 5.648 7.625 0 14.072-2.303 14.072-5.648v-6.558c0-3.345-6.447-5.476-14.072-5.476z"/><ellipse cx="95.126" cy="149.711" fill="#c3c3c3" stroke="url(#n)" stroke-miterlimit="10" stroke-width="1.005" rx="12.857" ry="5.5" transform="matrix(1.0373 0 0 .95462 -.895 -.076)"/><path fill="url(#o)" d="m87.422 147.485.256 5.876 4.672 1.084-.142-5.603s2.071-.04 5.428-.254c-5.216-.233-11.183-2.725-13.214-4.18 1.417 2.093 3 3.077 3 3.077z" opacity=".494"/></g><g transform="matrix(6.1932 0 0 4.64947 -478.017 -599.004)"><path fill="url(#p)" d="M97.72 137.522c-7.625 0-13.825 2.13-13.825 5.475v6.558c0 3.345 6.2 5.648 13.825 5.648 7.625 0 14.072-2.303 14.072-5.648v-6.558c0-3.345-6.447-5.475-14.072-5.475z"/><ellipse cx="95.126" cy="149.711" fill="#c3c3c3" stroke="url(#q)" stroke-miterlimit="10" stroke-width="1.005" rx="12.857" ry="5.5" transform="matrix(1.0373 0 0 .95462 -.895 -.076)"/><path fill="url(#r)" d="m87.422 147.485.256 5.876 4.672 1.084-.142-5.603s2.071-.04 5.428-.255c-5.216-.233-11.183-2.724-13.214-4.178 1.417 2.093 3 3.076 3 3.076z" opacity=".494"/></g></svg>