<svg width="256" height="256" xmlns="http://www.w3.org/2000/svg" fill="none"><rect rx="60" fill="#18181b" height="256" width="256"/><path d="M193.248 61.797c-16.627-23.95-49.729-30.966-73.525-15.865L77.773 72.78c-11.44 7.17-19.372 18.915-21.66 32.186-1.983 11.136-.305 22.576 5.034 32.492-3.661 5.491-6.102 11.593-7.17 18-2.44 13.576.763 27.61 8.695 38.745 16.78 23.95 49.728 30.966 73.525 15.865l41.95-26.695c11.44-7.17 19.372-18.915 21.66-32.187 1.983-11.135.305-22.576-5.034-32.49 3.661-5.493 6.102-11.594 7.17-18 2.593-13.73-.61-27.764-8.695-38.9z" fill="#ff3e00"/><path d="M115.644 196.491a33.248 33.248 0 0 1-35.695-13.27c-4.881-6.713-6.712-15.102-5.339-23.34.305-1.373.61-2.593.915-3.966l.763-2.44L78.424 155a55.63 55.63 0 0 0 16.474 8.237l1.526.458-.153 1.525c-.152 2.136.458 4.424 1.678 6.255 2.441 3.508 6.712 5.186 10.83 4.118.916-.305 1.831-.61 2.594-1.068l41.796-26.695c2.136-1.372 3.51-3.355 3.966-5.796.458-2.44-.152-5.034-1.525-7.017-2.44-3.509-6.712-5.034-10.83-3.966-.916.305-1.83.61-2.594 1.068l-16.017 10.22c-2.593 1.678-5.49 2.898-8.542 3.661a33.252 33.252 0 0 1-35.695-13.27c-4.729-6.713-6.712-15.103-5.186-23.34 1.373-7.932 6.254-15.102 13.118-19.373l41.95-26.695c2.592-1.678 5.491-2.898 8.542-3.813a33.25 33.25 0 0 1 35.695 13.27c4.881 6.713 6.711 15.102 5.34 23.34-.307 1.373-.612 2.593-1.069 3.966l-.763 2.44-2.136-1.525a55.627 55.627 0 0 0-16.474-8.237l-1.526-.458.153-1.525c.153-2.136-.458-4.424-1.678-6.254-2.44-3.509-6.712-5.034-10.83-3.967-.916.306-1.83.61-2.594 1.068l-41.796 26.695c-2.136 1.373-3.509 3.356-3.966 5.797-.458 2.44.152 5.034 1.525 7.017 2.441 3.508 6.712 5.033 10.831 3.966.915-.305 1.83-.61 2.593-1.068l16.017-10.22c2.593-1.678 5.491-2.899 8.542-3.814a33.248 33.248 0 0 1 35.695 13.271c4.881 6.712 6.712 15.102 5.34 23.34-1.374 7.931-6.255 15.101-13.12 19.372l-41.949 26.695c-2.593 1.678-5.49 2.898-8.542 3.813z" fill="#fff"/></svg>