<svg xmlns="http://www.w3.org/2000/svg" xml:space="preserve" width="256" height="256"><defs><linearGradient id="a" x1=".5" x2=".5" y1=".999" y2="0"><stop offset="0" stop-color="#0882C8"/><stop offset="1" stop-color="#26B6DB"/></linearGradient></defs><path fill="#18181b" stroke-width="0" d="M196 0H60C26.863 0 0 26.863 0 60v136c0 33.137 26.863 60 60 60h136c33.137 0 60-26.863 60-60V60c0-33.137-26.863-60-60-60z"/><circle cx="128" cy="128" r="106.2" fill="url(#a)"/><circle cx="128" cy="127.638" r="79.062" fill="none" stroke="#FFF" stroke-miterlimit="10" stroke-width="6"/><path fill="#FFF" d="M193.131 108.28c8.503 2.894 17.73-1.629 20.625-10.132 2.895-8.503-1.628-17.73-10.131-20.625-8.504-2.894-17.73 1.629-20.625 10.132-2.895 8.503 1.628 17.73 10.131 20.625z"/><path fill="none" stroke="#FFF" stroke-miterlimit="10" stroke-width="6" d="m198.378 93.082-54.457 45.23"/><path fill="#FFF" d="M162.194 186.437c-.724 8.865 5.79 16.826 14.835 17.73 9.046.724 16.826-5.79 17.73-14.835.724-8.865-5.789-16.826-14.835-17.73-9.046-.724-17.006 5.79-17.73 14.835z"/><path fill="none" stroke="#FFF" stroke-miterlimit="10" stroke-width="6" d="m178.296 187.885-34.375-49.573"/><path fill="#FFF" d="M130.352 147.178c4.885 7.598 15.016 9.77 22.434 4.884 7.599-4.884 9.77-15.016 4.885-22.434-4.885-7.598-15.016-9.77-22.434-4.885-7.599 4.704-9.77 14.836-4.885 22.435zM60.155 132.885c-7.78-4.523-17.73-1.99-22.253 5.608-4.523 7.78-1.99 17.73 5.608 22.254 7.78 4.523 17.73 1.99 22.254-5.609 4.523-7.599 1.99-17.55-5.609-22.253z"/><path fill="none" stroke="#FFF" stroke-miterlimit="10" stroke-width="6" d="m51.833 146.816 92.088-8.504"/></svg>