<svg xmlns="http://www.w3.org/2000/svg" width="256" height="256"><path fill="#18181b" d="M196 0H60C26.863 0 0 26.863 0 60v136c0 33.137 26.863 60 60 60h136c33.137 0 60-26.863 60-60V60c0-33.137-26.863-60-60-60z"/><path fill="#fff" d="M48.09 48.975h35.013v17.39H66.925v122.477h16.178v17.484H48.089V48.975z" class="st1"/><path fill="#fff" d="M163.62 82.077v18.23H135.6v84.805h-19.722v-84.806h-28.16V82.077h75.901z"/><path fill="#fff" d="M205.253 206.326H170.24v-17.39h16.178V66.457H170.24V48.975h35.013v157.35z" class="st1"/></svg>