<svg xmlns="http://www.w3.org/2000/svg" width="109.85" height="37.35" data-asc="1.05" viewBox="0 15.5 109.85 37.35"><path fill="#fff" d="M44.15 24.45 37 52.5H26l-3.9-17-4.05 17H7.1L0 24.45h9.75l3.15 18.6 4.15-18.6h10.5l4.3 18.65 3.1-18.65h9.2Zm1.2 14q0-4.35 1.57-7.6 1.58-3.25 4.31-5 2.72-1.75 6.07-1.75 2.9 0 5 1.15t3.25 3.1v-3.9h9.8V52.5h-9.8v-3.9q-1.15 1.95-3.28 3.1-2.12 1.15-4.97 1.15-3.35 0-6.07-1.75-2.73-1.75-4.31-5.02-1.57-3.28-1.57-7.63m20.2 0q0-2.7-1.47-4.25-1.48-1.55-3.63-1.55-2.2 0-3.65 1.52-1.45 1.53-1.45 4.28 0 2.7 1.45 4.28 1.45 1.57 3.65 1.57 2.15 0 3.63-1.55 1.47-1.55 1.47-4.3ZM99.4 24.2q4.8 0 7.63 3.22 2.82 3.23 2.82 8.73V52.5h-9.8V37.45q0-2.4-1.25-3.78-1.25-1.37-3.35-1.37-2.2 0-3.45 1.37-1.25 1.38-1.25 3.78V52.5h-9.8v-37h9.8v12.95q1.3-1.9 3.53-3.07 2.22-1.18 5.12-1.18Z"/></svg>