<svg width="256" height="256" fill="none" xmlns="http://www.w3.org/2000/svg"><rect width="256" height="256" rx="60" fill="#18181b"/><path fill-rule="evenodd" clip-rule="evenodd" d="m112.957 146.697-4.634 11.227c12.452 38.344 12.452 38.344 19.404 71.792 6.951-33.448 6.951-33.448 19.403-71.792l-4.634-11.227-14.769-35.785-14.77 35.785Z" fill="#069EFE"/><path fill-rule="evenodd" clip-rule="evenodd" d="M111.383 27h32.688l72.383 179.643H186.1L127.727 69.437 69.354 206.643H39L111.383 27Z" fill="url(#a)"/><path fill-rule="evenodd" clip-rule="evenodd" d="M118.045 134.514 115 141.891c8.182 25.196 8.182 25.196 12.75 47.175 4.568-21.979 4.568-21.979 12.75-47.175l-3.045-7.377L127.75 111l-9.705 23.514Z" fill="#fff"/><linearGradient id="a" x1="128.019" y1="27" x2="127.749" y2="221.239" gradientUnits="userSpaceOnUse"><stop stop-color="#EC2802"/><stop offset="1" stop-color="#FCB200"/></linearGradient></svg>