<svg xmlns="http://www.w3.org/2000/svg" width="256" height="256" fill="none"><path fill="#18181b" d="M196 0H60C26.863 0 0 26.863 0 60v136c0 33.137 26.863 60 60 60h136c33.137 0 60-26.863 60-60V60c0-33.137-26.863-60-60-60Z"/><path fill="#A4C639" d="M55.435 93.078c-3.462 0-6.399 1.207-8.813 3.622C44.208 99.114 43 102.01 43 105.393v51.917c0 3.466 1.207 6.401 3.622 8.816 2.414 2.414 5.351 3.622 8.813 3.622 3.46 0 6.378-1.208 8.755-3.622 2.373-2.415 3.562-5.35 3.562-8.816v-51.917c0-3.382-1.207-6.279-3.622-8.693-2.415-2.415-5.313-3.622-8.695-3.622ZM155.409 46.472l8.572-15.815c.563-1.047.363-1.85-.602-2.414-1.047-.487-1.852-.24-2.414.723l-8.693 15.94c-7.649-3.382-15.739-5.075-24.269-5.075-8.533 0-16.624 1.694-24.27 5.075l-8.693-15.94c-.565-.963-1.37-1.208-2.414-.723-.967.567-1.167 1.367-.602 2.414l8.573 15.815c-8.693 4.433-15.617 10.607-20.768 18.535-5.151 7.932-7.728 16.601-7.728 26.02h111.682c0-9.417-2.578-18.086-7.728-26.02-5.152-7.928-12.036-14.102-20.646-18.535Zm-49.564 23.002c-.927.929-2.034 1.391-3.321 1.391-1.29 0-2.374-.462-3.26-1.391-.884-.925-1.327-2.028-1.327-3.32 0-1.287.443-2.392 1.328-3.319.885-.925 1.972-1.387 3.259-1.387s2.394.462 3.321 1.387c.925.93 1.39 2.032 1.39 3.32-.003 1.289-.467 2.394-1.39 3.319Zm50.891 0c-.887.929-1.974 1.391-3.259 1.391-1.29 0-2.397-.462-3.322-1.391-.927-.925-1.39-2.028-1.39-3.32 0-1.287.463-2.392 1.39-3.319.925-.925 2.032-1.387 3.322-1.387 1.287 0 2.372.462 3.259 1.387.885.93 1.327 2.032 1.327 3.32 0 1.289-.442 2.394-1.327 3.319ZM72.58 175.783c0 3.707 1.288 6.844 3.862 9.418 2.577 2.575 5.714 3.862 9.418 3.862h8.935l.123 27.411c0 3.461 1.207 6.401 3.621 8.815 2.414 2.415 5.314 3.622 8.693 3.622 3.459 0 6.398-1.207 8.813-3.622 2.415-2.414 3.622-5.353 3.622-8.815v-27.408h16.661v27.408c0 3.461 1.207 6.401 3.622 8.815 2.415 2.415 5.351 3.622 8.813 3.622 3.46 0 6.399-1.207 8.813-3.622 2.415-2.414 3.622-5.353 3.622-8.815v-27.408h9.056c3.621 0 6.718-1.288 9.297-3.862 2.575-2.575 3.862-5.712 3.862-9.418V95.37H72.581v80.413ZM200.565 93.078c-3.381 0-6.278 1.19-8.693 3.562-2.414 2.376-3.622 5.296-3.622 8.753v51.917c0 3.466 1.207 6.401 3.622 8.816 2.415 2.414 5.314 3.622 8.693 3.622 3.46 0 6.399-1.208 8.813-3.622 2.415-2.415 3.622-5.35 3.622-8.816v-51.917c0-3.458-1.207-6.377-3.622-8.753-2.414-2.373-5.353-3.562-8.813-3.562Z"/></svg>