<svg xmlns="http://www.w3.org/2000/svg" width="256" height="256"><path fill="#18181b" d="M196 0H60C26.863 0 0 26.863 0 60v136c0 33.137 26.863 60 60 60h136c33.137 0 60-26.863 60-60V60c0-33.137-26.863-60-60-60z"/><path fill="#FFF" d="M97.208 131.623h10.867v-7.246H97.208v7.246zm-21.736 0H86.34v-7.246H75.472v7.246zm-21.736 0h10.868v-7.246H53.736v7.246zm-21.736 0h10.868v-7.246H32v7.246zm165.29 23.228 8.39-2.797-8.39-2.796-2.796-8.387-2.793 8.387-8.387 2.796 8.387 2.797 2.793 8.386 2.796-8.386zm-82.324 9.875-2.797 8.39-8.39 2.797 8.39 2.793 2.797 8.39 2.796-8.39 8.387-2.793-8.387-2.797-2.796-8.39zm0-90.131-2.797 8.386-8.39 2.797 8.39 2.797 2.797 8.39 2.796-8.39 8.387-2.797-8.387-2.797-2.796-8.386zm13.346 53.162c13.298 8.713 22.645 25.714 26.496 48.25 7.411-9.716 19.221-28.325 19.221-48.25 0-19.83-10.437-37.262-19.196-48.398-3.833 22.609-13.197 39.664-26.521 48.398zm-9.046 3.33a3.623 3.623 0 0 1 0-6.658c15.83-6.79 26.58-26.479 29.484-54.015a3.62 3.62 0 0 1 6.29-2.046c9.799 10.846 26.235 32.984 26.235 59.39 0 28.05-20.08 52.524-26.236 59.356a3.625 3.625 0 0 1-2.691 1.196 3.72 3.72 0 0 1-1.12-.174 3.618 3.618 0 0 1-2.481-3.069c-2.91-27.517-13.654-47.195-29.481-53.98zM224 128c0 45.942-37.375 83.32-83.32 83.32-41.47 0-76.96-30.937-82.554-71.963l7.18-.978c5.108 37.454 37.51 65.696 75.373 65.696 41.947 0 76.076-34.125 76.076-76.075s-34.13-76.075-76.076-76.075c-36.73 0-68.196 26.177-74.822 62.24l-7.126-1.311c7.26-39.502 41.722-68.175 81.948-68.175C186.625 44.68 224 82.058 224 128z"/></svg>