<svg width="256" height="256" fill="none" xmlns="http://www.w3.org/2000/svg"><g clip-path="url(#a)"><path d="M196 0H60C26.863 0 0 26.863 0 60v136c0 33.137 26.863 60 60 60h136c33.137 0 60-26.863 60-60V60c0-33.137-26.863-60-60-60Z" fill="#18181b"/><path d="M218.325 101.194c2.636 12.888 2.386 25.605.212 37.808-2.206 12.381-6.686 24.088-13.054 34.68a111.79 111.79 0 0 1-8.418 12.143c-3.068 3.825-6.383 7.478-9.964 10.883-10.529 10.019-23.286 17.997-38.087 22.53-11.715 3.701-23.574 5.086-35.135 4.309a97.24 97.24 0 0 1-34.819-9.054L78 216.541c10.82 6.227 22.773 10.405 35.301 12.309 12.279 1.872 25.06 1.491 37.905-1.38 16.665-3.918 31.506-11.594 43.649-22.117a94.435 94.435 0 0 0 11.531-11.949c3.488-4.328 6.606-8.944 9.268-13.811 6.599-12.042 10.805-25.454 11.996-39.374 1.134-13.226-.486-26.845-4.901-40.219l-4.424 1.194ZM49.67 190.599c-4.861-5.313-9.208-11.186-12.813-17.626-3.513-6.281-6.312-13.054-8.397-20.237-.8-3.591-1.413-7.145-1.773-10.718-1.465-14.617.908-28.815 5.57-42.041 2.498-7.096 5.826-13.808 9.638-20.245 5.06-8.554 11.07-16.554 18.348-23.48 10.704-10.18 23.691-18.295 38.78-22.933 12.285-3.77 24.729-5.16 36.801-4.045 8.386.771 16.61 2.595 24.324 5.65 8.729 3.455 16.769 8.475 24.009 14.433 7.118 5.855 13.318 12.83 18.539 20.59.687 1.027 1.143 2.201 1.996 3.1.657.683 1.415.952 2.187 1.503L210 72.57c-.188-.976-.173-1.804-.583-2.705-.538-1.185-1.555-2.074-2.362-3.087-8.525-10.696-19.06-19.374-30.816-25.908-5.008-2.784-10.244-5.137-15.608-7.17-5.922-2.255-12.014-4.11-18.279-5.414-14.311-2.974-29.422-3.21-44.61.259-16.465 3.76-31.146 11.184-43.174 21.432-8.364 7.131-15.575 15.537-20.938 24.997-4.026 7.1-6.97 14.802-8.929 22.763-3.521 14.336-3.55 29.505-.378 44.642.752 3.586 1.627 7.156 2.755 10.724 1.83 7.403 4.48 14.386 7.723 20.939 3.372 6.824 7.395 13.169 12.058 18.957l2.81-2.401ZM183.26 116s2.676-2.539 6.013-5.872C195.137 104.266 203 96.074 203 96.074L200.421 93s-9.178 6.633-15.789 11.603a396.745 396.745 0 0 0-6.632 5.136l5.26 6.261Zm-64.39 34s-14.336 8.597-24.63 15.285C88.41 169.07 84 172.249 84 172.249L93.14 184s4.112-3.556 9.172-8.333c8.927-8.446 20.688-20.37 20.688-20.37L118.87 150Z" fill="#1F88C0"/><path d="M93 90.5C93 72.55 107.551 58 125.5 58c17.949 0 32.5 14.55 32.5 32.5V122H93V90.5Z" fill="#22B638"/><path d="M98 91.5C98 76.312 110.312 64 125.5 64S153 76.312 153 91.5V119H98V91.5Z" fill="#18181b"/><rect x="73" y="115" width="104" height="76" rx="10" fill="#22B638"/><rect x="81" y="123" width="88" height="60" rx="2" fill="#18181b"/><path fill="#18181b" d="M64 158h47v35H64z"/><circle cx="70" cy="193" r="28" fill="#1F88C0"/><ellipse cx="70" cy="193.5" rx="19" ry="19.5" fill="#18181b"/><circle cx="216" cy="85" r="18" fill="#1F88C0"/><circle cx="216" cy="85" r="13" fill="#18181b"/></g><defs><clipPath id="a"><path fill="#fff" d="M0 0h256v256H0z"/></clipPath></defs></svg>