<svg xmlns="http://www.w3.org/2000/svg" width="256" height="256" fill="none"><g clip-path="url(#a)"><path fill="#18181b" d="M196 0H60C26.863 0 0 26.863 0 60v136c0 33.137 26.863 60 60 60h136c33.137 0 60-26.863 60-60V60c0-33.137-26.863-60-60-60Z"/><path fill="#d70751" d="M187.105 113.749c.192 5.154-1.51 7.658-3.049 12.087l-2.768 1.371c-2.263 4.382.225 2.782-1.396 6.266-3.537 3.129-10.717 9.789-13.016 10.399-1.681-.036 1.137-1.975 1.505-2.733-4.73 3.234-3.796 4.856-11.03 6.825l-.21-.472c-17.833 8.362-42.607-8.206-42.282-30.81-.188 1.434-.541 1.075-.935 1.651-.921-11.628 5.391-23.307 16.035-28.084 10.411-5.132 22.616-3.029 30.068 3.902-4.093-5.346-12.248-11.014-21.905-10.489-9.465.154-18.322 6.146-21.276 12.654-4.847 3.04-5.412 11.724-7.523 13.316-2.845 20.82 5.346 29.812 19.204 40.394 2.175 1.464.612 1.688.903 2.801-4.603-2.146-8.816-5.388-12.284-9.358 1.841 2.681 3.825 5.288 6.392 7.336-4.343-1.461-10.143-10.48-11.832-10.847 7.482 13.349 30.353 23.412 42.335 18.418-5.544.205-12.586.113-18.811-2.18-2.623-1.342-6.174-4.117-5.539-4.636 16.348 6.082 33.23 4.604 47.373-6.692 3.601-2.794 7.532-7.545 8.668-7.609-1.71 2.564.294 1.233-1.021 3.497 3.58-5.762-1.561-2.347 3.704-9.95l1.944 2.667c-.728-4.787 5.962-10.594 5.281-18.158 1.535-2.313 1.711 2.491.084 7.812 2.258-5.903.597-6.852 1.175-11.725.623 1.639 1.451 3.377 1.873 5.107-1.473-5.706 1.505-9.606 2.246-12.923-.732-.32-2.271 2.522-2.627-4.215.054-2.927.82-1.534 1.113-2.255-.573-.33-2.087-2.575-3.005-6.877.661-1.014 1.781 2.621 2.689 2.769-.585-3.42-1.589-6.029-1.632-8.655-2.655-5.525-.94.738-3.089-2.372-2.826-8.776 2.342-2.037 2.693-6.022 4.278 6.176 6.716 15.754 7.84 19.72-.856-4.837-2.237-9.523-3.926-14.056 1.303.548-2.096-9.948 1.693-2.998-4.044-14.815-17.294-28.66-29.486-35.153 1.488 1.359 3.37 3.066 2.698 3.334-6.068-3.594-5.001-3.878-5.871-5.397-4.934-2.003-5.264.165-8.529.005-9.313-4.924-11.107-4.401-19.676-7.482l.389 1.818c-6.167-2.048-7.187.772-13.851.005-.405-.314 2.136-1.144 4.23-1.445-5.964.785-5.686-1.173-11.522.216 1.437-1.005 2.961-1.673 4.494-2.526-4.862.294-11.612 2.82-9.529.52-7.932 3.529-22.02 8.48-29.927 15.867l-.248-1.655c-3.623 4.333-15.798 12.94-16.767 18.557l-.97.224c-1.882 3.18-3.104 6.783-4.599 10.054-2.464 4.187-3.614 1.613-3.263 2.27-4.848 9.795-7.261 18.025-9.34 24.779 1.481 2.208.037 13.294.595 22.166-2.432 43.825 30.867 86.372 67.266 96.194 5.335 1.905 13.266 1.836 20.015 2.024-7.96-2.27-8.988-1.201-16.746-3.895-5.594-2.628-6.819-5.626-10.784-9.054l1.569 2.763c-7.771-2.741-4.519-3.392-10.843-5.386l1.676-2.179c-2.519-.191-6.672-4.228-7.807-6.47l-2.758.109c-3.31-4.066-5.076-7.003-4.945-9.279l-.89 1.583c-1.009-1.726-12.184-15.27-6.387-12.117-1.077-.977-2.509-1.594-4.06-4.407l1.179-1.342c-2.786-3.578-5.134-8.162-4.954-9.689 1.488 2.001 2.52 2.376 3.543 2.72-7.046-17.416-7.442-.958-12.775-17.727l1.126-.09c-.862-1.303-1.391-2.709-2.085-4.094l.493-4.874c-5.07-5.837-1.418-24.841-.683-35.262.503-4.237 4.232-8.749 7.064-15.825l-1.725-.294c3.301-5.734 18.844-23.037 26.046-22.15 3.487-4.364-.694-.016-1.377-1.113 7.662-7.899 10.071-5.58 15.241-7.003 5.572-3.296-4.785 1.289-2.143-1.256 9.64-2.451 6.829-5.577 19.402-6.82 1.328.75-3.076 1.16-4.181 2.135 8.028-3.917 25.41-3.023 36.705 2.172 13.096 6.103 27.818 24.135 28.401 41.1l.661.177c-.334 6.746 1.036 14.547-1.342 21.71l1.608-3.394Z"/></g><defs><clipPath id="a"><path fill="#d70751" d="M0 0h256v256H0z"/></clipPath></defs></svg>