<svg width="256" height="256" xmlns="http://www.w3.org/2000/svg"><path fill="#18181b" d="M196 0H60C26.863 0 0 26.863 0 60v136c0 33.137 26.863 60 60 60h136c33.137 0 60-26.863 60-60V60c0-33.137-26.863-60-60-60z"/><path fill="#782F9E" d="M195.262 46.497c20.157 16.712 32.936 40.151 37.026 65.975 1.677 31.25-3.73 59.753-25.04 84.01a435.744 435.744 0 0 1-7.913 7.913l-3.164 3.334c-19.437 19.056-46.17 25.073-72.473 24.936C96.864 232 73.097 221.06 53.647 202.66c-21.244-22.459-30.397-48.363-30.216-78.816.814-28.51 12.203-52.305 32.093-72.544 39.53-36.989 97.619-35.94 139.739-4.803"/><path fill="#EBECF1" d="m126.755 55.591 4.87.035c20.927.555 37.218 8.438 51.93 23.38 12.43 15.51 20.524 34.04 19.627 54.14-2.617 23.04-11.722 42.212-30.032 56.86-16.033 10.406-16.033 10.406-26.015 10.406l-.257-6.144-.394-8.054c-.052-1.336-.107-2.668-.163-4.04-.376-7.326-1.09-13.227-4.39-19.918l3.49-.895c11.536-3.165 19.238-5.803 25.669-16.449 3.32-8.762 3.337-18.565 2.06-27.75l-2.623-4.234c-3.328-5.723-3.104-9.69-2.905-16.253l.142-6.105.183-4.627a1616.38 1616.38 0 0 0-7.371 2.385l-4.146 1.34c-4.093 1.336-4.093 1.336-7.534 3.497-4.701 1.95-7.211.805-12.17-.284-2.354-.03-4.711 0-7.064.074-15.21.485-27.811.69-41.497-7.012l.183 4.25.144 5.613.183 5.55c-.508 5.4-.508 5.4-3.082 9.614-3.52 5.966-3.382 10.473-3.387 17.357l-.104 6.712c1.273 9.466 5.28 14.75 12.569 20.712 6.56 3.533 12.234 5 19.51 6.504l-6.937 12.14c-5.527.543-5.527.543-12.14 0-4.66-4.01-4.66-4.01-8.672-8.672-4.557-3.868-7.973-5.883-13.875-6.938v3.47l3.184 1.292c4.414 2.56 5.828 4.812 8.306 9.221 2.806 5.297 2.806 5.297 7.588 8.564 2.956.392 5.92.71 8.888.976l8.455.758v17.344c-13.883-.309-24.621-8.018-34.774-17.032-16.702-17.7-21.957-38.233-21.416-61.882 1.196-19.92 12.154-36.346 26.706-49.429 14.629-11.719 28.657-16.61 47.262-16.477"/></svg>