<svg xmlns="http://www.w3.org/2000/svg" width="256" height="256" fill="none"><path fill="#18181b" d="M0 60C0 27.397 27.397 0 60 0h136c32.603 0 60 27.397 60 60v136c0 32.603-27.397 60-60 60H60c-32.603 0-60-27.397-60-60V60z" opacity="undefined"/><path fill="#e14e1d" d="m48 38 8.61 96.593h110.71l-3.715 41.43-35.646 9.638-35.579-9.624-2.379-26.602H57.94l4.585 51.281 65.427 18.172 65.51-18.172 8.783-98.061H85.824l-2.923-32.71h122.238L208 38H48z"/><path fill="#e14e1d" d="M128 38H48l8.61 96.593H128v-31.938H85.824l-2.923-32.71H128V38zM128 185.647l-.041.014-35.579-9.624-2.379-26.602H57.94l4.585 51.281 65.427 18.172.049-.014v-33.227z"/></svg>