<svg xmlns="http://www.w3.org/2000/svg" xmlns:xlink="http://www.w3.org/1999/xlink" width="256" height="256" fill="none"><defs><linearGradient id="a"><stop offset="0"/><stop offset="1" stop-color="#fff"/></linearGradient><linearGradient xlink:href="#a" id="c" x1="-553.27" x2="-666.12" y1="525.91" y2="413.05" gradientTransform="matrix(1.286 0 0 1.28583 912.1 -475.631)" gradientUnits="userSpaceOnUse"/><linearGradient xlink:href="#a" id="b" x1="-666.12" x2="-553.27" y1="413.04" y2="525.91" gradientTransform="matrix(1.286 0 0 1.28583 912.1 -475.631)" gradientUnits="userSpaceOnUse" href="#a"/></defs><path fill="#18181b" d="M196 0H60C26.863 0 0 26.863 0 60v136c0 33.137 26.863 60 60 60h136c33.137 0 60-26.863 60-60V60c0-33.137-26.863-60-60-60z"/><g fill-rule="evenodd" color="#000"><path fill="url(#b)" d="M127.826 178.341c45.575 62.129 90.177-17.341 90.111-65.13-.077-56.504-57.347-88.083-90.148-88.083C75.14 25.128 25 68.64 25 128.174 25 194.346 82.474 231 127.789 231c-10.254-1.476-44.427-8.799-44.886-87.507-.31-53.235 17.366-74.503 44.811-65.147.615.228 30.274 11.928 30.274 50.15 0 38.058-30.162 49.845-30.162 49.845z"/><path fill="url(#c)" d="M127.772 78.304c-30.115-10.38-67.005 14.44-67.005 64.155 0 81.174 60.153 88.541 67.444 88.541C180.86 231 231 187.488 231 127.954c0-66.173-57.474-102.826-102.789-102.826 12.55-1.739 67.647 13.583 67.647 88.885 0 49.106-41.14 75.84-67.897 64.417-.614-.228-30.274-11.928-30.274-50.15 0-38.058 30.085-49.977 30.085-49.977z"/></g></svg>