<svg version="1.1" id="Layer_1" xmlns="http://www.w3.org/2000/svg" x="0" y="0" style="enable-background:new 0 0 144 144" xml:space="preserve" width="256" height="256"><style>.st0{fill:#f27777}.st1{fill:#fff}</style><path d="M196 0H60C26.863 0 0 26.863 0 60v136c0 33.137 26.863 60 60 60h136c33.137 0 60-26.863 60-60V60c0-33.137-26.863-60-60-60Z" fill="#18181b"/><path class="st0" d="M228.089 128A100.089 100.089 0 0 1 128 228.089 100.089 100.089 0 0 1 27.911 128a100.089 100.089 0 0 1 200.178 0z"/><path class="st1" d="M76.622 76.8c8.889 1.956 17.422 5.156 25.067 9.422a57.58 57.58 0 0 0-22.222 20.089c-3.556-4.8-5.511-10.844-5.511-17.244q0-6.667 2.667-12.267"/><path class="st1" d="M182.044 169.244c0 5.511-4.444 9.956-9.956 9.956s-9.956-4.444-9.956-9.956v-8H93.689v8c0 5.511-4.444 9.956-9.956 9.956s-9.956-4.444-9.956-9.956v-30.4c0-29.333 22.756-54.222 52.089-55.289 30.756-1.067 56 23.467 56 54.044z"/><path class="st1" d="M176.533 106.311a57.588 57.588 0 0 0-22.222-20.089c7.822-4.267 16.178-7.467 25.067-9.422q2.667 5.6 2.667 12.267c0 6.4-2.133 12.267-5.511 17.244"/><path class="st0" d="M151.644 126.933c-.711-.356-1.422-.178-1.778.356-.711 1.067-1.6 1.778-2.844 2.489v-.889c0-2.489-.889-4.8-2.311-6.578-1.067-1.6-2.844-2.489-4.978-2.489-3.378 0-6.222 2.844-6.222 6.222 0 1.422.533 2.844 1.422 3.911 1.067 1.244 2.311 2.311 3.911 3.022-1.067.533-2.133.889-3.378.889-1.422 0-2.489 1.244-2.489 2.489 0 1.422 1.067 2.489 2.489 2.489h1.244c3.911 0 7.467-2.311 9.067-5.511 2.667-.711 4.8-2.489 6.222-4.8.533-.356.356-1.244-.356-1.6m-10.133 3.378c-1.6-.533-3.022-1.422-3.911-2.844-.356-.356-.533-.889-.533-1.422 0-1.422 1.067-2.489 2.489-2.489 1.244 0 2.489 1.067 2.489 2.311 0 .356.178.711.178 1.244.178 1.067-.178 2.311-.711 3.2"/></svg>