<svg width="256" height="256" xmlns="http://www.w3.org/2000/svg" fill="none"><defs><linearGradient y2=".944" x2=".577" y1=".02" x1=".577" id="b"><stop stop-color="#97D9F6"/><stop stop-color="#0F80CC" offset=".92"/><stop stop-color="#0F80CC" offset="1"/></linearGradient><clipPath id="a"><rect fill="#fff" rx="60" height="256" width="256"/></clipPath></defs><path fill="#18181b" d="M196 0H60C26.863 0 0 26.863 0 60v136c0 33.137 26.863 60 60 60h136c33.137 0 60-26.863 60-60V60c0-33.137-26.863-60-60-60z"/><g clip-path="url(#a)"><path fill="#D9D9D9" d="M77.266 31.754C52.542 31.754 32.5 51.796 32.5 76.52v101.468c0 24.724 20.042 44.766 44.766 44.766h80.92c-1.326-3.912-2.366-10.107-2.95-17.177a157.216 157.216 0 0 1-.392-19.302c-.076-.96-.121-1.583-.121-1.583s-1.398-9.408-3.41-17.137c-.891-3.43-1.905-6.533-2.97-8.331-.548-.927.06-4.738 1.59-10.383.895 1.546 4.673 8.157 5.431 10.288.855 2.408 1.034 3.098 1.034 3.098s-2.072-10.648-5.471-16.862a226.393 226.393 0 0 1 2.642-8.256c1.178 2.064 3.854 6.805 4.82 9.052.09.208.171.403.23.564.137.39.253.72.357 1.023.545 1.58.678 2.083.678 2.083s-.202-1.034-.578-2.629c-.16-.674-.357-1.466-.577-2.31-.857-3.29-2.158-7.596-3.824-10.97 4.277-22.23 18.041-51.336 32.87-67.05a61.532 61.532 0 0 1 3.85-3.762c8.668-7.684 17.452-10.28 24.706-3.818 5.248 4.676 7.395 11.135 7.399 18.57V76.52c0-24.724-20.042-44.766-44.766-44.766H77.266z"/><path fill="url(#b)" d="M77.266 31.754C52.542 31.754 32.5 51.796 32.5 76.52v101.468c0 24.724 20.042 44.766 44.766 44.766h80.92c-1.326-3.912-2.366-10.107-2.95-17.177a157.216 157.216 0 0 1-.392-19.302c-.076-.96-.121-1.583-.121-1.583s-1.398-9.408-3.41-17.137c-.891-3.43-1.905-6.533-2.97-8.331-.548-.927.06-4.738 1.59-10.383.895 1.546 4.673 8.157 5.431 10.288.855 2.408 1.034 3.098 1.034 3.098s-2.072-10.648-5.471-16.862a226.393 226.393 0 0 1 2.642-8.256c1.178 2.064 3.854 6.805 4.82 9.052.09.208.171.403.23.564.137.39.253.72.357 1.023.545 1.58.678 2.083.678 2.083s-.202-1.034-.578-2.629c-.16-.674-.357-1.466-.577-2.31-.857-3.29-2.158-7.596-3.824-10.97 4.277-22.23 18.041-51.336 32.87-67.05a61.532 61.532 0 0 1 3.85-3.762c8.668-7.684 17.452-10.28 24.706-3.818 5.248 4.676 7.395 11.135 7.399 18.57V76.52c0-24.724-20.042-44.766-44.766-44.766H77.266z"/><path fill="#003B57" d="M216.101 59.292c-7.254-6.462-16.038-3.866-24.707 3.818a61.526 61.526 0 0 0-3.848 3.762c-14.83 15.714-28.594 44.82-32.87 67.05 1.665 3.374 2.966 7.68 3.823 10.97.22.844.418 1.636.577 2.31.376 1.595.578 2.63.578 2.63s-.133-.503-.678-2.084c-.104-.303-.22-.633-.357-1.023-.059-.16-.14-.356-.23-.564-.966-2.247-3.642-6.987-4.82-9.052a226.36 226.36 0 0 0-2.642 8.256c3.399 6.214 5.47 16.862 5.47 16.862s-.178-.69-1.033-3.098c-.758-2.131-4.536-8.742-5.431-10.288-1.53 5.645-2.138 9.456-1.59 10.383 1.065 1.798 2.079 4.9 2.97 8.33 2.012 7.73 3.41 17.138 3.41 17.138s.045.624.12 1.583c-.278 6.49-.111 13.22.392 19.302.667 8.05 1.922 14.968 3.521 18.67l1.086-.593c-2.349-7.292-3.303-16.85-2.885-27.872.632-16.848 4.514-37.165 11.685-58.342 12.117-31.967 28.928-57.616 44.313-69.865-14.023 12.65-33.003 53.598-38.684 68.762-6.362 16.98-10.87 32.915-13.587 48.182 4.688-14.312 19.845-20.465 19.845-20.465s7.434-9.157 16.121-22.24c-5.204 1.185-13.749 3.214-16.611 4.415-4.222 1.77-5.36 2.373-5.36 2.373s13.676-8.32 25.41-12.085c16.136-25.386 33.715-61.45 16.012-77.225M53.779 68.313c-2.286 0-4.144.667-5.569 2.001-1.424 1.336-2.147 3.087-2.147 5.232 0 1.111.18 2.125.533 3.054.354.93.904 1.792 1.644 2.571.74.78 2.22 1.84 4.428 3.186 2.708 1.631 4.48 2.955 5.331 3.99.852 1.032 1.274 2.115 1.274 3.243 0 1.511-.504 2.717-1.54 3.624-1.038.907-2.426 1.359-4.147 1.359-1.815 0-3.396-.631-4.754-1.885-1.357-1.256-2.043-2.916-2.058-4.998h-.844v7.555h.844c.258-.715.614-1.081 1.08-1.081.225 0 .751.153 1.57.438 1.994.7 3.63 1.038 4.918 1.038 2.217 0 4.11-.767 5.686-2.324 1.575-1.556 2.37-3.434 2.37-5.626 0-1.7-.525-3.211-1.555-4.53-1.03-1.319-3.034-2.854-6.028-4.617-2.576-1.527-4.248-2.771-5.02-3.74-.773-.969-1.17-2.04-1.17-3.215 0-1.272.473-2.293 1.407-3.054.934-.763 2.157-1.14 3.688-1.14 1.722 0 3.158.504 4.294 1.52C59.15 71.93 59.806 73.34 60 75.15h.844v-6.546h-.785c-.096.333-.185.547-.267.643-.079.095-.232.146-.459.146-.273 0-.76-.114-1.45-.336-1.482-.492-2.847-.745-4.103-.745zm27.59 0c-2.785 0-5.313.647-7.597 1.943-2.288 1.293-4.099 3.09-5.435 5.377-1.336 2.288-2 4.717-2 7.307 0 3.478 1.154 6.577 3.48 9.293 2.328 2.715 5.117 4.406 8.353 5.056.74.38 1.799 1.362 3.184 2.952 1.562 1.793 2.883 3.087 3.97 3.857a11.992 11.992 0 0 0 3.494 1.71c1.24.372 2.58.555 4.028.555 1.755 0 3.326-.3 4.71-.92l-.311-.76a7.592 7.592 0 0 1-2.562.424c-1.225 0-2.462-.399-3.703-1.199-1.238-.801-2.787-2.331-4.635-4.588-.868-1.081-1.468-1.763-1.807-2.031 3.541-.682 6.453-2.375 8.723-5.085 2.27-2.709 3.406-5.8 3.406-9.264 0-4.114-1.483-7.571-4.428-10.39-2.947-2.819-6.571-4.238-10.87-4.238zm17.224 0 .044.89c1.854 0 2.893.54 3.125 1.623.086.387.126 1.103.133 2.133l-.015 19.712c-.015 1.473-.228 2.413-.636 2.82-.41.406-1.102.66-2.103.76l-.045.892h18.483l.473-4.472h-.844c-.24 1.218-.793 2.091-1.673 2.587-.883.5-2.442.745-4.695.745h-1.748c-2.027 0-3.2-.723-3.51-2.177a4.485 4.485 0 0 1-.088-.935l.074-19.932c0-1.47.188-2.455.577-2.937.394-.48 1.105-.75 2.133-.818l-.044-.891h-9.641zm-16.928 1.08c3.141 0 5.705 1.221 7.686 3.683 1.98 2.463 2.962 5.838 2.962 10.112 0 4.05-.995 7.293-2.991 9.732-1.996 2.438-4.652 3.653-7.953 3.653-3.171 0-5.743-1.253-7.716-3.77-1.971-2.518-2.947-5.786-2.947-9.805 0-4.13.988-7.436 2.977-9.907 1.988-2.469 4.65-3.697 7.982-3.697zm42.504 4.238c-.45 0-.795.15-1.051.453-.264.302-.344.667-.253 1.111.09.43.335.807.726 1.125.389.317.808.482 1.259.482.436 0 .768-.165 1.007-.482.239-.318.311-.695.223-1.125-.093-.444-.33-.809-.697-1.11-.37-.303-.778-.454-1.214-.454zm12.188 3.025c-.766 2.908-2.426 4.48-4.976 4.735l.03.833h2.976l-.059 9.848c.005 1.684.057 2.805.178 3.376.293 1.366 1.197 2.06 2.71 2.06 2.189 0 4.485-1.315 6.886-3.945l-.725-.614c-1.734 1.732-3.267 2.601-4.606 2.601-.823 0-1.333-.467-1.525-1.388a3.471 3.471 0 0 1-.074-.79l.03-11.148h4.546l-.045-1.33h-4.487v-4.238h-.859zm17.579 3.712c-2.543 0-4.612 1.218-6.22 3.638-1.6 2.425-2.096 5.11-1.466 8.066.37 1.731 1.107 3.073 2.236 4.019 1.127.945 2.556 1.417 4.265 1.417 1.591 0 3.807-.397 4.74-1.198.934-.8 1.796-2.097 2.591-3.872l-.637-.658c-1.269 2.304-3.83 3.463-5.76 3.463-2.656 0-4.282-1.437-4.888-4.296a10.216 10.216 0 0 1-.178-1.169c3.159-.493 5.552-1.367 7.168-2.63 1.614-1.264 3.236-2.603 2.933-4.019a3.257 3.257 0 0 0-1.304-2.001c-.69-.5-2.48-.76-3.48-.76zm-27.798.102-5.479 1.242v.965l1.895-.234c.919 0 1.459.41 1.63 1.227.057.274.093.658.103 1.14l-.06 8.84c-.014 1.224-.152 1.935-.428 2.149-.28.213-1.015.32-2.207.32l-.03.834h8.693l-.014-.833c-1.208 0-1.991-.094-2.34-.278-.343-.182-.58-.514-.681-1.023-.08-.366-.114-.997-.119-1.87l.03-12.479h-.993zm26.406 1.637c.53 0 1.04.201 1.555.599.507.396.817.836.918 1.315.496 2.35-1.616 3.975-6.368 4.88-.136-1.713.166-3.27.933-4.676.762-1.405 1.754-2.118 2.962-2.118z"/></g></svg>