<svg xmlns="http://www.w3.org/2000/svg" width="256" height="256" fill="none"><g clip-path="url(#clip0_667_2)"><rect width="256" height="256" fill="#09090b" rx="60"/><mask id="a" width="256" height="234" x="0" y="0" maskUnits="userSpaceOnUse" style="mask-type:alpha"><path fill="#18181b" fill-rule="evenodd" d="M132.8 111.951V0h-9.6v233.498h9.6V121.547H256v-9.596H132.8ZM0 24.006C0 10.75 10.755 0 24 0h208c13.253 0 24 10.755 24 24.006v209.508H0V24.006Z" clip-rule="evenodd"/></mask><g mask="url(#a)"><path fill="#18181b" d="M196 0H60C26.863 0 0 26.863 0 60v136c0 33.137 26.863 60 60 60h136c33.137 0 60-26.863 60-60V60c0-33.137-26.863-60-60-60Z"/></g><mask id="b" width="256" height="256" x="0" y="0" maskUnits="userSpaceOnUse" style="mask-type:alpha"><path fill="#09090b" d="M196 0H60C26.863 0 0 26.863 0 60v136c0 33.137 26.863 60 60 60h136c33.137 0 60-26.863 60-60V60c0-33.137-26.863-60-60-60Z"/></mask><g mask="url(#b)"><path fill="#1BB91F" fill-rule="evenodd" d="M0 185h256v46.742c0 13.356-10.755 24.177-24 24.177H24c-13.253 0-24-10.81-24-24.177V185Zm0 0h256v48.354H0V185Z" clip-rule="evenodd"/></g></g></svg>